<?xml version="1.0" encoding="UTF-8" standalone="no"?>
<svg
   width="512"
   height="512"
   viewBox="0 0 512 512"
   version="1.1"
   id="svg5"
   xmlns="http://www.w3.org/2000/svg"
   xmlns:svg="http://www.w3.org/2000/svg">
  <defs
     id="defs2" />
  <style>
    #l { fill: #000014; }
    #s { fill: #0e7490 }
    @media (prefers-color-scheme: dark) {
      #l { fill: #fff; }
      #s { fill: #06b6d4 }
    }
  </style>
  <g
     id="layer1"
     style="display:inline">
    <g id="l"
       style="font-style:italic;font-weight:900;font-size:506.667px;line-height:1.25;font-family:Montserrat;-inkscape-font-specification:'Montserrat Heavy Italic';opacity:1;stroke-width:5">
      <path d="M 70.93338,6.1035156e-6 H 190.50679 L 138.32009,261.94684 H 298.42686 L 279.68018,354.6669 H 6.6375732e-7 Z" />
    </g>
    <g id="s"
       style="font-style:italic;font-weight:900;font-size:533.333px;line-height:1.25;font-family:Montserrat;-inkscape-font-specification:'Montserrat Heavy Italic';opacity:1;stroke-width:0">
      <path d="m 298.66697,511.99985 q -48.53331,0 -91.19995,-10.13333 -42.66664,-10.66666 -70.39995,-27.73331 l 48.5333,-92.79995 q 60.26663,34.66665 125.86659,34.66665 23.99998,0 36.79998,-5.86666 12.79999,-5.86667 12.79999,-15.99999 0,-9.6 -13.33333,-15.46666 -12.79999,-5.86666 -41.06664,-12.79999 -37.33331,-9.6 -61.86663,-19.19999 -24.53331,-10.13333 -43.19997,-30.39998 -18.13332,-20.79999 -18.13332,-54.39997 0,-42.13331 22.39998,-73.59996 22.93332,-31.99998 65.59996,-49.06663 42.66664,-17.59999 100.79994,-17.59999 41.59998,0 77.33329,8.53333 36.26664,7.99999 62.39996,23.46665 l -45.33331,91.73328 q -21.86665,-13.86666 -48.5333,-20.79999 -26.13332,-6.93333 -53.86663,-6.93333 -26.13332,0 -40.53331,7.46666 -14.39999,7.46666 -14.39999,17.59999 0,10.13333 12.79999,15.99999 13.33332,5.86666 43.19997,12.79999 36.26665,8.53333 60.79997,18.13333 25.06665,9.59999 43.19997,29.86664 18.13332,20.26666 18.13332,53.33331 0,41.59997 -22.93332,73.06662 -22.93332,31.46664 -65.59996,49.06663 -42.66664,17.06666 -100.2666,17.06666 z" />
    </g>
  </g>
</svg>
